# xmcd
#
# Track frame offsets: 
#        150
#        24051
#        69828
#        89456
#        104028
#        113154
#        132167
#        143124
#        155494
#        163929
#        195433
#        211541
#        220293
#        244267
#        260275
#
# Disc length: 4074 seconds
#
# Revision: 1
# Processed by: cddbd v1.5.2PL0 Copyright (c) Steve Scherf et al.
# Submitted via: ExactAudioCopy v1.3
#
DISCID=cc0fe80f
DTITLE=Various Artist - Anthology (RIC151) - Deutsche Barock Weihnacht - cd3
DYEAR=2016
DGENRE=Barock
TTITLE0=Choeur de Chambre de Namur - La Fenice - Schein - Mach dich auf
TTITLE0=, werde Licht
TTITLE1=Choeur de Chambre de Namur - La Fenice - Schütz - Magnificat an
TTITLE1=ima mea
TTITLE2=Choeur de Chambre de Namur, (...), La Fenice  - Schütz - Histo
TTITLE2=ria  SWV 435 - Eingang
TTITLE3=Choeur de Chambre de Namur, (...), La Fenice  - Schütz - Histo
TTITLE3=ria  SWV 435 - Intermedium I  Der Engel zu den Hirten auf dem 
TTITLE3=Felde
TTITLE4=Choeur de Chambre de Namur, (...), La Fenice  - Schütz - Histo
TTITLE4=ria  SWV 435 - Intermedium II  Die Menge der Engel
TTITLE5=Choeur de Chambre de Namur, (...), La Fenice  - Schütz - Histo
TTITLE5=ria  SWV 435 - Intermedium III  Die Hirten auf dem Felde
TTITLE6=Choeur de Chambre de Namur, (...), La Fenice  - Schütz - Histo
TTITLE6=ria  SWV 435 - Intermedium IV  Die Weisen aus Morgenlande 
TTITLE7=Choeur de Chambre de Namur, (...), La Fenice  - Schütz - Histo
TTITLE7=ria  SWV 435 - Intermedium V  Hohenpriester und Schriftgelehrt
TTITLE7=e 
TTITLE8=Choeur de Chambre de Namur, (...), La Fenice  - Schütz - Histo
TTITLE8=ria  SWV 435 - Intermedium VI  Herodes 
TTITLE9=Choeur de Chambre de Namur, (...), La Fenice  - Schütz - Histo
TTITLE9=ria  SWV 435 - Intermedium VII  Der Engel zu Joseph 
TTITLE10=Choeur de Chambre de Namur, (...), La Fenice  - Schütz - Hist
TTITLE10=oria  SWV 435 - Intermedium VIII  Der Engel zu Joseph in Ägyp
TTITLE10=ten 
TTITLE11=Choeur de Chambre de Namur, (...), La Fenice  - Schütz - Hist
TTITLE11=oria  SWV 435 - Beschluß
TTITLE12=Choeur de Chambre de Namur, La Fenice  - Schütz - Hodie Chris
TTITLE12=tus natus est
TTITLE13=Ledroit, Foccroulle, Pierlot - Schütz - O Jesu nomen dulce
TTITLE14=Bernard Foccroulle - Bruhns - Nun komm der Heiden Heiland
EXTD=
EXTT0=
EXTT1=
EXTT2=
EXTT3=
EXTT4=
EXTT5=
EXTT6=
EXTT7=
EXTT8=
EXTT9=
EXTT10=
EXTT11=
EXTT12=
EXTT13=
EXTT14=
PLAYORDER=
